PathFileType	4	(X/Y/Z)	Patient4_TMGait_0pt4_03_left_28.trc.trc
DataRate	CameraRate	NumFrames	NumMarkers	Units	OrigDataRate	OrigDataStartFrame	OrigNumFrames
74.866310160428	74.866310160428	4	33	mm	74.866310160428	18	       141
Frame#	Time	Sacral			L.Shoulder			Chest			R.Shoulder			Neck			R.ASIS			L.ASIS			R.Thigh.Superior			R.Thigh.Lateral			R.Thigh.Inferior			R.Patella			L.Thigh.Superior			L.Thigh.Lateral			L.Thigh.Inferior			L.Patella			L.Shank.Superior			L.Shank.Lateral			L.Shank.Inferior			R.Shank.Superior			R.Shank.Lateral			R.Shank.Inferior			R.Heel			R.Midfoot.Superior			R.Midfoot.Lateral			R.Toe			L.Heel			L.Midfoot.Lateral			L.Midfoot.Superior			L.Toe			L.Elbow			L.Wrist			R.Elbow			R.Wrist			
		X1	Y1	Z1	X2	Y2	Z2	X3	Y3	Z3	X4	Y4	Z4	X5	Y5	Z5	X6	Y6	Z6	X7	Y7	Z7	X8	Y8	Z8	X9	Y9	Z9	X10	Y10	Z10	X11	Y11	Z11	X12	Y12	Z12	X13	Y13	Z13	X14	Y14	Z14	X15	Y15	Z15	X16	Y16	Z16	X17	Y17	Z17	X18	Y18	Z18	X19	Y19	Z19	X20	Y20	Z20	X21	Y21	Z21	X22	Y22	Z22	X23	Y23	Z23	X24	Y24	Z24	X25	Y25	Z25	X26	Y26	Z26	X27	Y27	Z27	X28	Y28	Z28	X29	Y29	Z29	X30	Y30	Z30	X31	Y31	Z31	X32	Y32	Z32	X33	Y33	Z33	

18	37.097071428571	846.035025268900	1007.591542890658	496.540963975859	1006.985265865216	1431.376251693811	299.959541101209	1130.372321210159	1360.193393434881	444.610244444901	1075.722096747757	1434.182801280841	629.564467488476	1015.695859122442	1493.849186771121	457.675544154990	1082.570133741392	937.154202672407	589.990803495974	1042.755016064566	960.717006618269	317.242326220289	1085.029908464538	727.829971068380	560.793423338857	988.498956290544	630.728828047624	627.679740245481	1048.501267985832	567.562725149530	545.306501013923	1034.679246170462	483.345476581431	551.504735321622	1114.601062911746	775.991508276213	336.635713011565	1065.546343603098	649.895999992734	254.017670149076	1171.551800474716	590.086797984984	310.364213631992	1199.380950797987	527.156917081620	303.358326385241	1182.795485340352	456.769247318983	291.161711875918	1116.938462280032	327.871839184500	237.020519540281	1208.225546529554	227.831316292030	283.978718046767	999.299775480919	398.434706549333	558.697003577570	921.376136174731	300.345038087625	622.573435120950	953.713110025765	203.015764256660	556.481680829669	809.933331798087	42.602801365831	526.563290884735	980.642268792552	95.463363953343	562.126621914974	892.879587486613	36.573039898970	601.098103968310	1101.224075123761	42.449200005237	591.250289574725	1130.963190982812	45.438381951329	319.656827663494	1202.199116263028	52.578779190135	237.784871985855	1271.376748609496	132.662062729361	257.937087621935	1404.799242426989	107.931964637407	226.505124523201	892.762601947504	1091.957770423952	207.838294436364	896.655734973008	830.630032480229	192.165122158698	1155.882685768043	1097.597195264113	746.282527321812	1391.390450301895	1062.809687309315	659.231422747989	
19	37.110428571429	846.755490732432	1006.948575541259	494.452909030119	1006.773599383834	1430.628003901514	297.597279442010	1130.522537182044	1359.640439466658	442.004185988793	1076.101556435247	1433.606745767769	627.039331162262	1015.744657841870	1493.109161828222	455.268284452051	1083.192820903126	936.480331274863	588.017194351302	1043.544781152954	959.702035736242	315.080927087423	1083.767062572938	726.714469045233	559.532942328940	985.857399344876	630.572784010645	626.457392233683	1045.321512037708	566.706472002789	544.480659364660	1030.892030890938	482.654033325235	550.738153857229	1115.221167352970	774.672799784352	335.000680552139	1064.702554683061	647.496129545352	254.341776312587	1171.113846953879	588.107161631229	309.924939974433	1198.333861663726	524.828065235114	303.983678517183	1181.265163089357	454.050315762984	292.431497143488	1114.171484316927	325.481836064116	239.482360803084	1204.581770683117	225.061882602948	286.891410541521	995.035263897494	398.068135285410	558.028056195686	916.686233170151	300.432869311646	622.004987504765	948.717890535304	202.828485768731	556.206127760960	804.498345060454	42.512286614954	526.567230954304	975.197145665459	95.431175353029	562.137504711288	887.423463743946	36.515678266290	601.121460853831	1095.766644580429	42.573401222944	591.273675236105	1125.520284787386	44.449390565569	323.861145840061	1196.563985486220	50.168254419555	241.771428510571	1266.996427699093	128.880397433673	261.535611980621	1399.762334627897	101.835462061560	229.892582283200	888.739603627356	1092.392931461468	207.187183844059	889.026637119664	831.035599989625	192.435237986967	1157.892267541624	1096.957073553583	741.964748962221	1393.042294405064	1067.363677326445	652.941133111299	
20	37.123785714286	847.675067651782	1006.094559291131	492.163441454880	1006.514824830430	1429.686552225912	294.980678625548	1130.649230296326	1359.033743092844	439.193541406147	1076.355497898612	1432.961481771125	624.289723544171	1015.699679959580	1492.237042658335	452.589801426745	1084.028554686772	935.712173516769	585.958480859740	1044.642883350466	958.530211033545	312.858582874003	1082.897271425661	725.518374669313	558.163275147439	983.713513297052	630.267064770647	625.121757125265	1042.672377210228	565.747703863364	543.498908967103	1027.647356792628	481.782519342812	549.816202233204	1116.334599165529	773.214518638535	333.452224150960	1064.351022997130	645.036781181122	254.802425682043	1171.022505960802	586.019161808424	309.834936142224	1197.439102728583	522.099600172997	304.905675825099	1179.596845217473	450.839636091942	293.878207421395	1110.619972248338	322.956029652367	242.077279352749	1199.597095528609	221.709500338722	289.989427489800	991.220140027262	397.518580624034	557.230779687688	912.355277295416	300.442181674102	621.353185157973	943.889628194790	202.523353780219	555.858616233602	799.072455797252	42.393775389326	526.567918988152	969.760151209120	95.390875678865	562.138464174343	881.971138934459	36.440080515958	601.139837568493	1090.312024435400	42.681781580760	591.301937372718	1117.736642888488	43.399847017481	328.104987029421	1188.576351433163	47.531373063927	245.758756760886	1260.723237487398	124.334284642357	265.363684860361	1392.667563241416	94.270538419313	233.354862775609	885.269928922105	1092.454468075616	206.290602680128	882.412823600939	831.123642434414	192.272468532267	1159.426170517460	1096.209030814222	737.664407902520	1394.056417894502	1071.063670951901	646.690807780649	
21	37.137142857143	848.764241306003	1005.057183334219	489.699683392225	1006.246616162600	1428.567176260036	292.110782732342	1130.773842656132	1358.378391067007	436.189159894494	1076.503437705692	1432.260518403406	621.323532551699	1015.589378858389	1491.254081278850	449.639656300484	1085.063831841214	934.863724732969	583.817863799781	1046.005517597389	957.230723392373	310.598409162994	1082.478852240560	724.252757799668	556.672090101767	982.158931424918	629.791821340226	623.658769195330	1040.631340732683	564.679817549536	542.318659382778	1025.014787003617	480.711477354312	548.683992908076	1117.862463359521	771.610322370532	332.033806803196	1064.443391324425	642.607881167443	255.318661932223	1171.193106397926	583.858228265289	310.073179342106	1196.616429885188	519.071555212874	306.084832051999	1177.833036573012	447.296164213533	295.409690523227	1106.583014350933	320.356483991343	244.599768617985	1193.699279894641	217.975451388557	293.113345329328	987.919253079038	396.765708050248	556.266517532673	908.446673472462	300.367075782736	620.603093856304	939.254100387538	202.093073068059	555.419256477446	793.658977637111	42.260487529337	526.566566770422	964.337981684170	95.345270297269	562.118962752748	876.529279662108	36.351529925241	601.151437700318	1084.866224885753	42.758470894678	591.335619455500	1108.322321594190	42.321344399447	332.114255124191	1179.006514465603	44.838667102709	249.531276848851	1253.142924622144	119.349997630993	269.273485553583	1384.192515156229	85.838921374638	236.860564253555	882.435424613773	1092.126075649720	205.095277952284	876.879860891609	830.860385312358	191.661499160866	1160.480151485012	1095.355509410901	733.419283528275	1394.467090791198	1073.878746396189	640.507860221714	
